<svg version="1.1" id="Layer_1" xmlns="http://www.w3.org/2000/svg" xmlns:xlink="http://www.w3.org/1999/xlink" x="0px" y="0px"
	 width="100%" viewBox="0 0 512 512" enable-background="new 0 0 512 512" xml:space="preserve">
<path fill="none"  stroke="none" 
	d="
M513.000000,219.000000 
	C513.000000,316.961182 513.000000,414.922363 513.000000,512.941772 
	C342.439758,512.941772 171.879471,512.941772 1.000000,512.941772 
	C1.000000,415.312134 1.000000,317.623901 1.351502,219.593216 
	C2.134590,220.280380 2.771727,221.272552 2.967274,222.345230 
	C6.538885,241.937332 12.352795,260.882782 21.882957,278.335297 
	C30.384401,293.903961 39.790859,309.027588 49.608032,323.809601 
	C55.179512,332.198761 62.193054,339.672241 68.923889,347.231537 
	C72.253227,350.970642 77.355759,350.828094 80.543198,347.776367 
	C83.729919,344.725342 83.715446,339.908295 80.520897,336.059174 
	C78.934525,334.147766 77.400108,332.192444 75.788048,330.303192 
	C57.559814,308.940796 42.110115,285.823273 30.971403,259.933746 
	C19.165079,232.492493 13.904252,204.005630 18.055933,174.268692 
	C23.103634,138.113861 40.578018,108.658340 69.374001,86.629547 
	C97.852058,64.843941 130.410294,55.725933 166.365845,59.909645 
	C192.118912,62.906208 215.191818,72.232811 235.276581,88.724373 
	C248.235733,99.365120 265.709320,99.082664 278.856537,88.689049 
	C313.103394,61.615005 351.745941,53.195347 394.252563,62.656437 
	C408.131104,65.745514 421.054474,71.402527 433.350037,78.579811 
	C437.673828,81.103722 442.297241,79.559509 444.513641,75.583641 
	C446.614838,71.814552 445.268524,66.722504 440.918243,64.565262 
	C431.110901,59.701935 421.435638,54.269493 411.127167,50.780724 
	C387.479065,42.777302 363.142670,40.841629 338.344421,44.920994 
	C312.490387,49.174034 289.389862,59.468170 268.925476,75.676872 
	C260.512238,82.340515 253.460464,82.391487 245.167648,75.748154 
	C220.553467,56.029831 192.277298,45.269123 160.951736,43.147915 
	C139.005417,41.661827 117.593575,45.027229 96.876312,52.845943 
	C73.133484,61.806511 53.015102,76.065620 36.657986,95.124756 
	C19.150057,115.524811 7.925058,139.321503 2.917535,165.897675 
	C2.707451,167.012634 1.658269,167.969482 0.999999,169.000000 
	C1.000000,113.028801 1.000000,57.057606 1.000000,1.043204 
	C171.550079,1.043204 342.100189,1.043204 513.000000,1.043204 
	C513.000000,56.687611 513.000000,112.375954 512.649170,168.408813 
	C511.542694,166.264587 510.624939,163.812286 510.056366,161.281540 
	C503.901764,133.885300 491.435822,109.835342 471.969574,89.530952 
	C467.949310,85.337601 462.920349,84.948227 459.578796,88.108650 
	C456.081085,91.416702 456.498077,96.552177 460.533417,101.034035 
	C463.645447,104.490417 466.912048,107.845161 469.689331,111.559593 
	C495.974670,146.714371 502.755280,185.958969 493.315582,228.269638 
	C487.265991,255.385132 474.953918,279.712921 459.253876,302.562866 
	C444.050781,324.689606 426.975739,345.129028 407.205383,363.242432 
	C392.890869,376.357239 378.163513,389.022705 363.558441,401.817993 
	C361.282440,403.811981 358.676270,405.429138 355.694458,407.606293 
	C354.989929,405.174530 354.474091,403.630829 354.097290,402.053925 
	C352.061890,393.535706 349.936066,385.035706 348.123627,376.469666 
	C347.573975,373.871918 347.307983,370.919830 347.975739,368.413422 
	C350.057343,360.600250 348.879700,353.285156 344.172913,347.077423 
	C341.179596,343.129547 342.233948,341.716858 345.729584,339.482819 
	C356.631042,332.515747 365.856995,323.781494 372.694733,312.670380 
	C387.299255,288.938538 389.043457,263.704468 381.691467,237.340637 
	C380.637512,233.561295 378.606659,229.245361 379.529053,225.859070 
	C384.432251,207.858826 388.509399,189.718170 389.585358,171.096451 
	C390.069611,162.715179 389.819824,154.031525 388.147369,145.843719 
	C385.318604,131.995209 371.171051,121.987091 353.769135,126.573601 
	C333.856384,131.821869 315.923492,140.997131 299.845459,153.752487 
	C296.009064,156.796051 292.421661,157.585968 287.614197,156.485474 
	C267.403107,151.859024 247.047104,151.819336 226.840332,156.387360 
	C221.597305,157.572632 217.870529,156.659714 213.743881,153.413269 
	C197.756348,140.835846 180.001984,131.550903 160.181366,126.632126 
	C148.727280,123.789635 138.699570,125.938972 130.730301,135.595520 
	C124.834282,142.739838 124.276115,151.205276 124.129234,159.579666 
	C123.747292,181.357056 128.175110,202.483337 133.887924,223.388184 
	C134.556808,225.835892 134.982849,228.807297 134.228394,231.112762 
	C129.146362,246.642227 126.522614,262.348053 128.997513,278.704407 
	C131.068420,292.390930 135.653763,304.975098 143.703537,316.364136 
	C150.544556,326.043030 159.324753,333.494354 169.045120,339.973572 
	C172.046921,341.974487 172.601608,343.511108 170.110962,346.638214 
	C166.163376,351.594543 163.531738,357.935577 165.348267,363.886566 
	C167.659637,371.458618 165.724121,377.734833 163.127136,384.411346 
	C161.994034,387.324371 161.495941,390.504028 160.890778,393.598083 
	C160.025101,398.024078 159.325775,402.482605 158.492218,407.291962 
	C157.028030,406.680054 156.322937,406.563965 155.860123,406.166077 
	C140.894577,393.299713 125.961349,380.395721 110.996506,367.528534 
	C108.865913,365.696564 106.742249,363.789551 104.362343,362.329803 
	C100.570007,360.003723 96.971756,360.664764 94.177856,364.163116 
	C91.675919,367.295837 92.126106,372.283020 95.105522,375.012085 
	C103.675003,382.861572 112.152206,390.821320 120.936096,398.425385 
	C144.082108,418.462341 168.711349,436.515778 194.492203,453.027313 
	C210.811798,463.479309 228.731445,469.327271 247.860458,470.828857 
	C276.823700,473.102417 303.282928,465.110352 326.887024,448.455750 
	C345.589050,435.260010 364.254425,421.904297 381.932129,407.396332 
	C398.295349,393.967102 414.029907,379.594849 428.741272,364.380768 
	C442.781555,349.860748 455.909912,334.296112 468.076355,318.162933 
	C489.556396,289.679596 504.438721,257.935120 511.034393,222.602005 
	C511.273041,221.323578 512.326355,220.197220 513.000000,219.000000 
z"/>
<path fill="#5B0202" opacity="1.000000" stroke="none" 
	d="
M513.000000,218.531342 
	C512.326355,220.197220 511.273041,221.323578 511.034393,222.602005 
	C504.438721,257.935120 489.556396,289.679596 468.076355,318.162933 
	C455.909912,334.296112 442.781555,349.860748 428.741272,364.380768 
	C414.029907,379.594849 398.295349,393.967102 381.932129,407.396332 
	C364.254425,421.904297 345.589050,435.260010 326.887024,448.455750 
	C303.282928,465.110352 276.823700,473.102417 247.860458,470.828857 
	C228.731445,469.327271 210.811798,463.479309 194.492203,453.027313 
	C168.711349,436.515778 144.082108,418.462341 120.936096,398.425385 
	C112.152206,390.821320 103.675003,382.861572 95.105522,375.012085 
	C92.126106,372.283020 91.675919,367.295837 94.177856,364.163116 
	C96.971756,360.664764 100.570007,360.003723 104.362343,362.329803 
	C106.742249,363.789551 108.865913,365.696564 110.996506,367.528534 
	C125.961349,380.395721 140.894577,393.299713 155.860123,406.166077 
	C156.322937,406.563965 157.028030,406.680054 158.492218,407.291962 
	C159.325775,402.482605 160.025101,398.024078 160.890778,393.598083 
	C161.495941,390.504028 161.994034,387.324371 163.127136,384.411346 
	C165.724121,377.734833 167.659637,371.458618 165.348267,363.886566 
	C163.531738,357.935577 166.163376,351.594543 170.110962,346.638214 
	C172.601608,343.511108 172.046921,341.974487 169.045120,339.973572 
	C159.324753,333.494354 150.544556,326.043030 143.703537,316.364136 
	C135.653763,304.975098 131.068420,292.390930 128.997513,278.704407 
	C126.522614,262.348053 129.146362,246.642227 134.228394,231.112762 
	C134.982849,228.807297 134.556808,225.835892 133.887924,223.388184 
	C128.175110,202.483337 123.747292,181.357056 124.129234,159.579666 
	C124.276115,151.205276 124.834282,142.739838 130.730301,135.595520 
	C138.699570,125.938972 148.727280,123.789635 160.181366,126.632126 
	C180.001984,131.550903 197.756348,140.835846 213.743881,153.413269 
	C217.870529,156.659714 221.597305,157.572632 226.840332,156.387360 
	C247.047104,151.819336 267.403107,151.859024 287.614197,156.485474 
	C292.421661,157.585968 296.009064,156.796051 299.845459,153.752487 
	C315.923492,140.997131 333.856384,131.821869 353.769135,126.573601 
	C371.171051,121.987091 385.318604,131.995209 388.147369,145.843719 
	C389.819824,154.031525 390.069611,162.715179 389.585358,171.096451 
	C388.509399,189.718170 384.432251,207.858826 379.529053,225.859070 
	C378.606659,229.245361 380.637512,233.561295 381.691467,237.340637 
	C389.043457,263.704468 387.299255,288.938538 372.694733,312.670380 
	C365.856995,323.781494 356.631042,332.515747 345.729584,339.482819 
	C342.233948,341.716858 341.179596,343.129547 344.172913,347.077423 
	C348.879700,353.285156 350.057343,360.600250 347.975739,368.413422 
	C347.307983,370.919830 347.573975,373.871918 348.123627,376.469666 
	C349.936066,385.035706 352.061890,393.535706 354.097290,402.053925 
	C354.474091,403.630829 354.989929,405.174530 355.694458,407.606293 
	C358.676270,405.429138 361.282440,403.811981 363.558441,401.817993 
	C378.163513,389.022705 392.890869,376.357239 407.205383,363.242432 
	C426.975739,345.129028 444.050781,324.689606 459.253876,302.562866 
	C474.953918,279.712921 487.265991,255.385132 493.315582,228.269638 
	C502.755280,185.958969 495.974670,146.714371 469.689331,111.559593 
	C466.912048,107.845161 463.645447,104.490417 460.533417,101.034035 
	C456.498077,96.552177 456.081085,91.416702 459.578796,88.108650 
	C462.920349,84.948227 467.949310,85.337601 471.969574,89.530952 
	C491.435822,109.835342 503.901764,133.885300 510.056366,161.281540 
	C510.624939,163.812286 511.542694,166.264587 512.649170,168.876663 
	C513.000000,185.354233 513.000000,201.708450 513.000000,218.531342 
M291.528473,173.940048 
	C281.058472,172.294754 270.627045,169.626709 260.109955,169.230057 
	C241.685867,168.535217 223.869217,172.112946 206.772476,179.559433 
	C183.050171,189.891663 164.326599,205.489853 153.001022,229.012085 
	C141.619644,252.650208 140.052399,276.731720 152.838287,300.322388 
	C164.148865,321.190979 183.474548,332.021454 205.224335,338.965698 
	C225.010513,345.283020 245.345505,347.055023 266.122772,346.146484 
	C288.905518,345.150269 310.607178,340.560272 330.672546,329.599365 
	C356.927094,315.257538 370.761475,293.055054 369.805115,262.986450 
	C369.098053,240.757080 360.063599,221.479721 344.768585,205.318481 
	C330.260834,189.989075 312.470337,180.027039 291.528473,173.940048 
M285.991089,410.282593 
	C285.835785,417.280487 282.992310,423.228394 278.268402,428.139648 
	C269.199432,437.568481 254.929611,439.704407 243.377304,433.686432 
	C231.238159,427.362793 225.465927,415.436676 228.503250,401.438141 
	C229.482437,396.925201 227.662842,395.992157 224.147049,395.196686 
	C210.905426,392.200653 197.648514,389.250427 184.496094,385.895721 
	C180.752396,384.940796 179.113937,385.975037 178.420059,389.363770 
	C177.257126,395.043243 175.645187,400.700012 175.203812,406.441803 
	C174.547272,414.982086 175.863113,422.811523 184.841248,427.426483 
	C190.569122,430.370697 195.659424,434.538330 201.111038,438.039948 
	C229.166229,456.059906 259.016479,459.998535 290.649994,449.199738 
	C307.425629,443.472992 321.165802,432.527863 335.445496,422.571808 
	C336.817780,421.615021 337.435730,419.225189 337.898743,417.374237 
	C340.287720,407.823914 337.870239,398.625824 335.633636,389.416595 
	C334.719666,385.653290 332.816925,385.050873 329.082397,386.005920 
	C316.254028,389.286530 303.332703,392.214844 290.404510,395.087158 
	C286.456604,395.964264 283.903534,397.009033 285.628143,401.930725 
	C286.415375,404.177338 285.913391,406.875671 285.991089,410.282593 
M278.087219,380.756439 
	C284.487976,379.830872 290.991577,379.345337 297.265778,377.878510 
	C307.115051,375.575775 316.886505,372.856262 326.538269,369.826874 
	C331.603790,368.236969 333.941132,362.857086 332.237885,358.715332 
	C329.384827,351.777557 326.350494,350.420441 319.946625,352.487762 
	C313.482849,354.574432 306.931183,356.462494 300.314148,357.986542 
	C283.238678,361.919342 265.895416,362.464966 248.429977,362.080170 
	C228.974960,361.651550 210.180573,358.221771 191.923416,351.572784 
	C190.611588,351.095062 188.237564,350.630035 187.762787,351.244690 
	C185.296158,354.438080 181.954987,357.840759 181.566360,361.455231 
	C181.289886,364.026825 184.651337,368.714508 187.335785,369.605347 
	C207.934784,376.441223 228.630142,383.471161 250.956223,379.170776 
	C252.569885,378.859955 254.291367,378.896454 255.942245,379.028107 
	C263.026093,379.593079 270.102264,380.254120 278.087219,380.756439 
M146.494690,206.028778 
	C147.069382,205.764099 147.789200,205.638779 148.197189,205.213989 
	C155.189041,197.933914 162.217041,190.684647 169.001282,183.214447 
	C169.772919,182.364792 169.787827,179.607437 169.025070,178.797577 
	C165.849365,175.425766 162.435623,172.205292 158.747253,169.406235 
	C153.152817,165.160629 147.257446,161.311554 141.489899,157.294037 
	C141.041351,157.612854 140.592789,157.931671 140.144241,158.250488 
	C139.699265,174.312851 142.128937,190.057465 146.494690,206.028778 
M373.993500,165.492096 
	C373.854218,162.966202 373.714905,160.440308 373.529785,157.083282 
	C362.287415,163.481262 353.000488,170.551117 344.664246,178.900436 
	C342.286224,181.282196 344.299500,182.613495 345.820190,184.178299 
	C351.914948,190.449997 357.966492,196.763733 364.025513,203.070099 
	C365.079559,204.167175 366.092529,205.303680 367.124451,206.421982 
	C367.670105,206.317886 368.215790,206.213806 368.761444,206.109726 
	C370.502747,192.875977 372.244019,179.642212 373.993500,165.492096 
M267.892822,415.165192 
	C268.386932,414.112793 269.028992,413.103455 269.350250,412.000702 
	C270.985840,406.385956 269.888184,401.627747 265.220581,397.698547 
	C260.974091,394.123779 256.274170,394.251160 251.635513,395.910645 
	C246.607285,397.709534 243.872421,402.662537 244.025391,408.175293 
	C244.184692,413.916687 247.247528,418.342896 252.784195,420.245850 
	C258.655334,422.263824 263.517181,420.376648 267.892822,415.165192 
M318.714142,160.164627 
	C317.247650,161.275101 315.781158,162.385590 313.561218,164.066605 
	C318.031982,166.384521 321.583984,168.090607 324.997101,170.039917 
	C327.572906,171.511017 329.363281,171.042358 331.569946,169.048370 
	C337.934631,163.297119 344.466705,157.717575 351.137451,152.323410 
	C355.374969,148.896866 359.976898,145.921005 364.415375,142.743042 
	C364.144440,142.208054 363.873474,141.673080 363.602509,141.138107 
	C347.508484,143.976166 332.908875,150.593628 318.714142,160.164627 
M191.042480,157.454178 
	C178.292648,149.753357 165.100021,143.289749 149.230927,141.148636 
	C161.321793,151.305954 172.294983,160.551117 183.321350,169.732452 
	C184.133362,170.408615 185.608612,171.257874 186.300186,170.951981 
	C190.843948,168.942261 195.257080,166.637161 200.585434,163.995895 
	C196.783936,161.386124 194.215866,159.623123 191.042480,157.454178 
z"/>
<path fill="#5B0202" opacity="1.000000" stroke="none" 
	d="
M0.999999,169.468658 
	C1.658269,167.969482 2.707451,167.012634 2.917535,165.897675 
	C7.925058,139.321503 19.150057,115.524811 36.657986,95.124756 
	C53.015102,76.065620 73.133484,61.806511 96.876312,52.845943 
	C117.593575,45.027229 139.005417,41.661827 160.951736,43.147915 
	C192.277298,45.269123 220.553467,56.029831 245.167648,75.748154 
	C253.460464,82.391487 260.512238,82.340515 268.925476,75.676872 
	C289.389862,59.468170 312.490387,49.174034 338.344421,44.920994 
	C363.142670,40.841629 387.479065,42.777302 411.127167,50.780724 
	C421.435638,54.269493 431.110901,59.701935 440.918243,64.565262 
	C445.268524,66.722504 446.614838,71.814552 444.513641,75.583641 
	C442.297241,79.559509 437.673828,81.103722 433.350037,78.579811 
	C421.054474,71.402527 408.131104,65.745514 394.252563,62.656437 
	C351.745941,53.195347 313.103394,61.615005 278.856537,88.689049 
	C265.709320,99.082664 248.235733,99.365120 235.276581,88.724373 
	C215.191818,72.232811 192.118912,62.906208 166.365845,59.909645 
	C130.410294,55.725933 97.852058,64.843941 69.374001,86.629547 
	C40.578018,108.658340 23.103634,138.113861 18.055933,174.268692 
	C13.904252,204.005630 19.165079,232.492493 30.971403,259.933746 
	C42.110115,285.823273 57.559814,308.940796 75.788048,330.303192 
	C77.400108,332.192444 78.934525,334.147766 80.520897,336.059174 
	C83.715446,339.908295 83.729919,344.725342 80.543198,347.776367 
	C77.355759,350.828094 72.253227,350.970642 68.923889,347.231537 
	C62.193054,339.672241 55.179512,332.198761 49.608032,323.809601 
	C39.790859,309.027588 30.384401,293.903961 21.882957,278.335297 
	C12.352795,260.882782 6.538885,241.937332 2.967274,222.345230 
	C2.771727,221.272552 2.134590,220.280380 1.351502,219.125366 
	C1.000000,202.645767 1.000000,186.291550 0.999999,169.468658 
z"/>
<path fill="none"  stroke="none" 
	d="
M291.932892,174.001801 
	C312.470337,180.027039 330.260834,189.989075 344.768585,205.318481 
	C360.063599,221.479721 369.098053,240.757080 369.805115,262.986450 
	C370.761475,293.055054 356.927094,315.257538 330.672546,329.599365 
	C310.607178,340.560272 288.905518,345.150269 266.122772,346.146484 
	C245.345505,347.055023 225.010513,345.283020 205.224335,338.965698 
	C183.474548,332.021454 164.148865,321.190979 152.838287,300.322388 
	C140.052399,276.731720 141.619644,252.650208 153.001022,229.012085 
	C164.326599,205.489853 183.050171,189.891663 206.772476,179.559433 
	C223.869217,172.112946 241.685867,168.535217 260.109955,169.230057 
	C270.627045,169.626709 281.058472,172.294754 291.932892,174.001801 
M220.219360,274.112579 
	C223.142563,290.936615 240.109268,298.433990 253.426147,291.067871 
	C256.274536,289.492310 258.276093,289.762543 261.120422,291.254211 
	C275.748566,298.925629 293.784241,288.419891 293.961914,272.344910 
	C294.016693,267.391205 290.971130,263.789795 286.445343,263.456421 
	C282.214630,263.144775 278.565735,266.113220 278.059204,270.814362 
	C277.602356,275.054321 274.896637,277.763885 271.402618,277.371765 
	C269.116638,277.115234 265.882751,273.795441 265.399719,271.382080 
	C264.398407,266.379120 261.719482,263.672913 257.212250,263.566132 
	C252.491684,263.454224 250.319977,266.907806 248.796921,271.323761 
	C247.924896,273.852173 245.282074,276.968353 242.913559,277.502930 
	C239.305405,278.317261 237.098679,275.060181 236.154648,271.557068 
	C234.590271,265.751923 231.628922,263.020477 227.343704,263.523956 
	C223.030045,264.030792 220.359436,267.646637 220.219360,274.112579 
M327.002167,258.479401 
	C326.996735,256.492981 326.863312,254.496994 327.011017,252.522018 
	C327.384338,247.529526 324.510895,245.019699 320.172852,244.379669 
	C315.776581,243.731064 312.494720,246.297058 311.932281,250.476151 
	C311.239441,255.624161 311.191254,260.980408 311.775574,266.143555 
	C312.324402,270.993500 316.293945,272.303894 320.703400,271.878571 
	C325.131775,271.451477 326.906891,268.587769 326.967468,264.399200 
	C326.991425,262.744110 326.991241,261.088654 327.002167,258.479401 
M188.472519,247.132706 
	C184.995239,253.673950 185.257706,260.481293 187.330307,267.286987 
	C188.641266,271.591766 192.224365,272.369873 196.139221,271.843414 
	C200.021942,271.321289 201.860764,268.793121 201.937042,264.985168 
	C202.016678,261.010284 201.867233,257.028656 202.024872,253.058167 
	C202.160751,249.636185 201.394043,246.835312 198.058121,245.238297 
	C194.733536,243.646729 191.678497,243.768143 188.472519,247.132706 
z"/>
<path fill="none"  stroke="none" 
	d="
M285.993622,409.825867 
	C285.913391,406.875671 286.415375,404.177338 285.628143,401.930725 
	C283.903534,397.009033 286.456604,395.964264 290.404510,395.087158 
	C303.332703,392.214844 316.254028,389.286530 329.082397,386.005920 
	C332.816925,385.050873 334.719666,385.653290 335.633636,389.416595 
	C337.870239,398.625824 340.287720,407.823914 337.898743,417.374237 
	C337.435730,419.225189 336.817780,421.615021 335.445496,422.571808 
	C321.165802,432.527863 307.425629,443.472992 290.649994,449.199738 
	C259.016479,459.998535 229.166229,456.059906 201.111038,438.039948 
	C195.659424,434.538330 190.569122,430.370697 184.841248,427.426483 
	C175.863113,422.811523 174.547272,414.982086 175.203812,406.441803 
	C175.645187,400.700012 177.257126,395.043243 178.420059,389.363770 
	C179.113937,385.975037 180.752396,384.940796 184.496094,385.895721 
	C197.648514,389.250427 210.905426,392.200653 224.147049,395.196686 
	C227.662842,395.992157 229.482437,396.925201 228.503250,401.438141 
	C225.465927,415.436676 231.238159,427.362793 243.377304,433.686432 
	C254.929611,439.704407 269.199432,437.568481 278.268402,428.139648 
	C282.992310,423.228394 285.835785,417.280487 285.993622,409.825867 
z"/>
<path fill="none"  stroke="none" 
	d="
M277.634216,380.818298 
	C270.102264,380.254120 263.026093,379.593079 255.942245,379.028107 
	C254.291367,378.896454 252.569885,378.859955 250.956223,379.170776 
	C228.630142,383.471161 207.934784,376.441223 187.335785,369.605347 
	C184.651337,368.714508 181.289886,364.026825 181.566360,361.455231 
	C181.954987,357.840759 185.296158,354.438080 187.762787,351.244690 
	C188.237564,350.630035 190.611588,351.095062 191.923416,351.572784 
	C210.180573,358.221771 228.974960,361.651550 248.429977,362.080170 
	C265.895416,362.464966 283.238678,361.919342 300.314148,357.986542 
	C306.931183,356.462494 313.482849,354.574432 319.946625,352.487762 
	C326.350494,350.420441 329.384827,351.777557 332.237885,358.715332 
	C333.941132,362.857086 331.603790,368.236969 326.538269,369.826874 
	C316.886505,372.856262 307.115051,375.575775 297.265778,377.878510 
	C290.991577,379.345337 284.487976,379.830872 277.634216,380.818298 
z"/>
<path fill="none"  stroke="none" 
	d="
M146.329193,205.826706 
	C142.128937,190.057465 139.699265,174.312851 140.144241,158.250488 
	C140.592789,157.931671 141.041351,157.612854 141.489899,157.294037 
	C147.257446,161.311554 153.152817,165.160629 158.747253,169.406235 
	C162.435623,172.205292 165.849365,175.425766 169.025070,178.797577 
	C169.787827,179.607437 169.772919,182.364792 169.001282,183.214447 
	C162.217041,190.684647 155.189041,197.933914 148.197189,205.213989 
	C147.789200,205.638779 147.069382,205.764099 146.329193,205.826706 
z"/>
<path fill="none"  stroke="none" 
	d="
M373.989380,165.950272 
	C372.244019,179.642212 370.502747,192.875977 368.761444,206.109726 
	C368.215790,206.213806 367.670105,206.317886 367.124451,206.421982 
	C366.092529,205.303680 365.079559,204.167175 364.025513,203.070099 
	C357.966492,196.763733 351.914948,190.449997 345.820190,184.178299 
	C344.299500,182.613495 342.286224,181.282196 344.664246,178.900436 
	C353.000488,170.551117 362.287415,163.481262 373.529785,157.083282 
	C373.714905,160.440308 373.854218,162.966202 373.989380,165.950272 
z"/>
<path fill="none"  stroke="none" 
	d="
M267.689697,415.486786 
	C263.517181,420.376648 258.655334,422.263824 252.784195,420.245850 
	C247.247528,418.342896 244.184692,413.916687 244.025391,408.175293 
	C243.872421,402.662537 246.607285,397.709534 251.635513,395.910645 
	C256.274170,394.251160 260.974091,394.123779 265.220581,397.698547 
	C269.888184,401.627747 270.985840,406.385956 269.350250,412.000702 
	C269.028992,413.103455 268.386932,414.112793 267.689697,415.486786 
z"/>
<path fill="none"  stroke="none" 
	d="
M319.045166,160.036896 
	C332.908875,150.593628 347.508484,143.976166 363.602509,141.138107 
	C363.873474,141.673080 364.144440,142.208054 364.415375,142.743042 
	C359.976898,145.921005 355.374969,148.896866 351.137451,152.323410 
	C344.466705,157.717575 337.934631,163.297119 331.569946,169.048370 
	C329.363281,171.042358 327.572906,171.511017 324.997101,170.039917 
	C321.583984,168.090607 318.031982,166.384521 313.561218,164.066605 
	C315.781158,162.385590 317.247650,161.275101 319.045166,160.036896 
z"/>
<path fill="none"  stroke="none" 
	d="
M191.345139,157.657135 
	C194.215866,159.623123 196.783936,161.386124 200.585434,163.995895 
	C195.257080,166.637161 190.843948,168.942261 186.300186,170.951981 
	C185.608612,171.257874 184.133362,170.408615 183.321350,169.732452 
	C172.294983,160.551117 161.321793,151.305954 149.230927,141.148636 
	C165.100021,143.289749 178.292648,149.753357 191.345139,157.657135 
z"/>
<path fill="#5B0202" opacity="1.000000" stroke="none" 
	d="
M220.168610,273.709930 
	C220.359436,267.646637 223.030045,264.030792 227.343704,263.523956 
	C231.628922,263.020477 234.590271,265.751923 236.154648,271.557068 
	C237.098679,275.060181 239.305405,278.317261 242.913559,277.502930 
	C245.282074,276.968353 247.924896,273.852173 248.796921,271.323761 
	C250.319977,266.907806 252.491684,263.454224 257.212250,263.566132 
	C261.719482,263.672913 264.398407,266.379120 265.399719,271.382080 
	C265.882751,273.795441 269.116638,277.115234 271.402618,277.371765 
	C274.896637,277.763885 277.602356,275.054321 278.059204,270.814362 
	C278.565735,266.113220 282.214630,263.144775 286.445343,263.456421 
	C290.971130,263.789795 294.016693,267.391205 293.961914,272.344910 
	C293.784241,288.419891 275.748566,298.925629 261.120422,291.254211 
	C258.276093,289.762543 256.274536,289.492310 253.426147,291.067871 
	C240.109268,298.433990 223.142563,290.936615 220.168610,273.709930 
z"/>
<path fill="#5B0202" opacity="1.000000" stroke="none" 
	d="
M327.002075,258.956390 
	C326.991241,261.088654 326.991425,262.744110 326.967468,264.399200 
	C326.906891,268.587769 325.131775,271.451477 320.703400,271.878571 
	C316.293945,272.303894 312.324402,270.993500 311.775574,266.143555 
	C311.191254,260.980408 311.239441,255.624161 311.932281,250.476151 
	C312.494720,246.297058 315.776581,243.731064 320.172852,244.379669 
	C324.510895,245.019699 327.384338,247.529526 327.011017,252.522018 
	C326.863312,254.496994 326.996735,256.492981 327.002075,258.956390 
z"/>
<path fill="#5B0202" opacity="1.000000" stroke="none" 
	d="
M188.743164,246.855499 
	C191.678497,243.768143 194.733536,243.646729 198.058121,245.238297 
	C201.394043,246.835312 202.160751,249.636185 202.024872,253.058167 
	C201.867233,257.028656 202.016678,261.010284 201.937042,264.985168 
	C201.860764,268.793121 200.021942,271.321289 196.139221,271.843414 
	C192.224365,272.369873 188.641266,271.591766 187.330307,267.286987 
	C185.257706,260.481293 184.995239,253.673950 188.743164,246.855499 
z"/>
</svg>