<svg version="1.1" id="Layer_1" xmlns="http://www.w3.org/2000/svg" xmlns:xlink="http://www.w3.org/1999/xlink" x="0px" y="0px"
	 width="100%" viewBox="0 0 512 512" enable-background="new 0 0 512 512" xml:space="preserve">
<path fill="none" stroke="none" 
	d="
M513.000000,219.000000 
	C513.000000,316.961517 513.000000,414.923004 513.000000,512.942261 
	C342.438873,512.942261 171.877731,512.942261 1.000000,512.942261 
	C1.000000,415.310913 1.000000,317.621490 1.372896,219.547089 
	C2.144544,219.840042 2.791519,220.478699 2.905851,221.201599 
	C5.993291,240.723099 12.492178,259.124969 20.951145,276.910217 
	C32.805935,301.835297 48.911289,323.897644 66.484261,344.995941 
	C70.213142,349.472900 74.527855,351.256195 80.424072,349.067505 
	C85.179619,354.107056 89.633713,358.988403 93.943657,364.205505 
	C91.824081,368.330048 91.914543,372.027191 95.111031,374.993988 
	C103.621811,382.893250 112.148674,390.786194 120.925034,398.386139 
	C143.800262,418.195160 168.031723,436.199860 193.624268,452.363831 
	C224.741211,472.016998 257.943939,475.993713 293.000763,465.465332 
	C310.468079,460.219513 325.129669,449.800201 339.844818,439.506683 
	C371.973358,417.032104 402.833618,393.000275 429.355743,363.959991 
	C442.648804,349.404877 455.673340,334.492188 467.555420,318.785065 
	C489.486633,289.793793 504.875153,257.606476 511.102081,221.444504 
	C511.256592,220.547333 512.346375,219.811218 513.000000,219.000000 
z"/>
<path fill="none" stroke="none" 
	d="
M1.000001,169.000000 
	C1.000000,113.028885 1.000000,57.057770 1.000000,1.043329 
	C171.549728,1.043329 342.099487,1.043329 513.000000,1.043329 
	C513.000000,56.687069 513.000000,112.374878 512.628418,168.450745 
	C511.834473,167.830933 511.223572,166.860092 511.017334,165.809769 
	C505.314789,136.768738 492.675812,111.260033 472.216675,89.771652 
	C467.833984,85.168457 465.246552,84.958992 459.148926,87.648788 
	C454.297089,83.542145 449.676910,79.694916 445.054565,75.485001 
	C445.921112,71.121407 445.692108,67.030632 441.787262,65.061668 
	C431.574066,59.911835 421.451050,54.245773 410.675049,50.618591 
	C387.041962,42.663727 362.688873,40.815414 337.941589,44.971134 
	C312.131195,49.305378 289.019104,59.598946 268.652130,75.941017 
	C260.801117,82.240524 253.239822,82.270317 245.291138,75.869820 
	C220.731277,56.093624 192.462708,45.318695 161.168167,43.148872 
	C139.252625,41.629349 117.854897,44.991432 97.132187,52.764275 
	C73.375366,61.675186 53.244709,75.872589 36.873444,94.901154 
	C19.122831,115.532959 7.659109,139.549347 2.897947,166.557617 
	C2.739684,167.455383 1.653596,168.189560 1.000001,169.000000 
z"/>
<path fill="#4F0606" opacity="1.000000" stroke="none" 
	d="
M459.380585,87.908211 
	C465.246552,84.958992 467.833984,85.168457 472.216675,89.771652 
	C492.675812,111.260033 505.314789,136.768738 511.017334,165.809769 
	C511.223572,166.860092 511.834473,167.830933 512.628418,168.919403 
	C513.000000,185.354233 513.000000,201.708450 513.000000,218.531342 
	C512.346375,219.811218 511.256592,220.547333 511.102081,221.444504 
	C504.875153,257.606476 489.486633,289.793793 467.555420,318.785065 
	C455.673340,334.492188 442.648804,349.404877 429.355743,363.959991 
	C402.833618,393.000275 371.973358,417.032104 339.844818,439.506683 
	C325.129669,449.800201 310.468079,460.219513 293.000763,465.465332 
	C257.943939,475.993713 224.741211,472.016998 193.624268,452.363831 
	C168.031723,436.199860 143.800262,418.195160 120.925034,398.386139 
	C112.148674,390.786194 103.621811,382.893250 95.111031,374.993988 
	C91.914543,372.027191 91.824081,368.330048 94.307587,364.127808 
	C100.509911,360.560486 102.633110,361.027679 107.677269,365.418854 
	C123.253761,378.978760 138.937836,392.415283 154.611725,405.862885 
	C156.009369,407.061951 157.636429,407.993683 158.191345,408.379028 
	C160.968765,397.754181 163.750916,387.548889 166.245407,377.273743 
	C166.903244,374.563965 167.332962,371.486755 166.724777,368.840912 
	C164.988922,361.289246 165.591507,354.302246 169.978775,347.804108 
	C171.167847,346.042969 172.437775,344.336395 173.763992,342.473572 
	C172.839127,341.816406 172.196198,341.298523 171.497589,340.871887 
	C130.104477,315.594757 120.857536,271.683441 134.480957,232.112549 
	C135.367599,229.537216 135.318924,226.216080 134.565048,223.566299 
	C128.148926,201.014587 123.864861,178.224960 124.951805,154.615341 
	C125.925575,133.464310 141.470764,121.877327 161.774384,127.550049 
	C181.624664,133.096115 199.430923,142.662720 215.501541,155.465286 
	C218.227661,157.637024 220.655075,158.324539 224.133759,157.503326 
	C246.058334,152.327621 268.058716,152.466125 289.991364,157.466614 
	C293.239441,158.207138 295.564087,157.811478 298.193481,155.707733 
	C314.235626,142.872467 332.011963,133.257248 351.852112,127.662178 
	C372.482117,121.844368 388.088348,133.357452 389.051575,154.733780 
	C390.107788,178.174164 385.830719,200.796616 379.570282,223.212463 
	C378.750916,226.146194 378.850342,229.765732 379.755371,232.686081 
	C389.837006,265.217255 387.471039,295.734436 364.445068,322.333893 
	C357.673828,330.155975 348.919922,336.261688 340.867798,343.335724 
	C340.867340,343.334991 341.224976,344.099182 341.747986,344.725159 
	C348.286865,352.551971 349.896576,361.198364 346.539185,370.899078 
	C346.024567,372.385986 346.690155,374.401703 347.143890,376.082733 
	C349.261993,383.929901 351.651917,391.707092 353.610291,399.592316 
	C354.338196,402.523071 354.153503,405.680450 354.424683,409.258820 
	C355.899628,408.327972 356.767334,407.872131 357.533203,407.283783 
	C389.893768,382.424133 419.779388,354.965240 445.227753,322.943024 
	C466.450409,296.238068 483.885162,267.377960 492.494202,234.020111 
	C505.097961,185.183777 496.543793,140.858444 462.688843,102.540451 
	C458.544006,97.849205 456.697266,93.652946 459.380585,87.908211 
M228.412888,411.974640 
	C228.774765,406.617004 229.136642,401.259338 229.455780,396.534637 
	C212.968491,392.684692 196.425140,388.821686 178.951813,384.741486 
	C177.861343,389.777496 176.649246,395.375153 175.183777,401.881470 
	C175.245209,406.860992 175.262039,411.841644 175.383041,416.819702 
	C175.470047,420.397949 177.146576,422.877441 180.270386,424.852478 
	C187.713013,429.558136 194.823227,434.791168 202.283127,439.467560 
	C226.226257,454.476837 252.050018,458.993225 279.721100,453.029968 
	C297.040924,449.297424 311.023956,439.074188 326.037933,430.529449 
	C337.838013,423.813843 340.425903,414.829041 338.910370,402.930756 
	C338.826782,402.274445 338.668610,401.627655 338.583618,400.213593 
	C337.283417,394.824707 335.983215,389.435791 334.862946,384.792664 
	C317.217712,388.904633 300.563324,392.785706 284.649536,396.494202 
	C284.982910,402.047363 285.308075,407.463684 285.261414,413.483002 
	C283.364319,422.075043 278.676514,428.658905 270.997223,432.990112 
	C255.646927,441.647919 233.541061,434.817108 228.412888,411.974640 
M214.464539,175.933929 
	C190.749847,184.108963 171.108749,197.886719 157.688354,219.273544 
	C142.458801,243.543488 138.355225,269.518921 150.213898,296.342010 
	C159.869888,318.182861 178.559448,330.214966 200.207764,337.889709 
	C228.921478,348.069244 258.484589,349.228180 288.344543,344.431702 
	C300.810028,342.429321 313.108307,339.538361 324.966217,333.066742 
	C348.564758,322.087128 365.039795,305.064392 369.178345,278.571533 
	C373.714386,249.534485 364.234680,224.643997 344.119659,203.867279 
	C323.045624,182.100006 296.618042,171.345154 266.714844,169.108337 
	C249.187561,167.797256 231.847839,169.262238 214.464539,175.933929 
M302.072937,377.579773 
	C310.072449,375.326019 318.129059,373.253357 326.051392,370.754883 
	C331.331635,369.089630 333.766632,364.982147 333.108826,360.109650 
	C332.382202,354.727264 326.602753,349.271606 322.970398,350.559418 
	C279.114685,366.108002 235.244934,366.065674 191.346436,350.726837 
	C190.147461,350.307953 187.973083,349.672516 187.696838,350.090973 
	C185.213470,353.852417 182.099030,357.593079 181.064941,361.805054 
	C180.013626,366.087219 183.453995,369.335052 187.598846,370.619629 
	C195.852325,373.177551 204.094330,376.041077 212.558594,377.588684 
	C226.028488,380.051483 239.530334,383.685760 253.449936,379.340118 
	C256.405640,378.417328 260.252625,378.865662 263.264587,379.908264 
	C270.047882,382.256409 276.754578,381.295288 283.489136,380.521179 
	C289.436951,379.837555 295.334900,378.719482 302.072937,377.579773 
M139.794632,162.728745 
	C139.688660,178.215805 142.279205,193.308105 145.968216,207.777466 
	C154.622696,198.713913 163.242294,189.686890 172.030304,180.483490 
	C162.600433,171.225723 152.182343,162.898331 139.796432,155.772980 
	C139.796432,158.494888 139.796432,160.150803 139.794632,162.728745 
M360.324188,164.832855 
	C353.968414,170.087570 347.612671,175.342285 341.736328,180.200607 
	C350.915863,189.836304 359.465637,198.810989 367.823578,207.584305 
	C371.355072,198.612015 376.207733,165.564056 373.298370,156.056519 
	C369.091187,158.878738 364.987671,161.631393 360.324188,164.832855 
M252.740463,420.974091 
	C259.023560,422.715179 264.303986,421.100067 268.169983,415.868164 
	C271.514130,411.342468 271.917267,406.321045 269.154053,401.347412 
	C266.329773,396.263947 261.845154,393.751129 256.015259,394.046722 
	C249.933868,394.355103 244.849060,398.917053 243.443359,405.049469 
	C242.000473,411.344116 245.070969,416.977173 252.740463,420.974091 
M197.115906,166.655350 
	C198.642105,165.894516 200.168304,165.133667 202.225403,164.108170 
	C187.267807,153.213669 171.685501,145.333740 154.346451,141.186523 
	C152.249939,140.685089 149.860977,141.406403 147.347702,141.578842 
	C157.537857,149.433365 167.034912,156.651382 176.403427,164.032486 
	C179.518829,166.487030 182.072632,171.136383 185.304031,171.558197 
	C188.755920,172.008774 192.705048,168.650070 197.115906,166.655350 
M332.335297,168.951462 
	C343.506226,159.866669 354.677155,150.781876 365.580750,141.914490 
	C357.770966,138.487244 320.598907,153.936295 312.663696,164.514862 
	C316.669586,166.524338 320.840088,168.269287 324.629425,170.626907 
	C327.665802,172.516083 329.800171,172.220947 332.335297,168.951462 
z"/>
<path fill="#4F0505" opacity="1.000000" stroke="none" 
	d="
M1.000001,169.468658 
	C1.653596,168.189560 2.739684,167.455383 2.897947,166.557617 
	C7.659109,139.549347 19.122831,115.532959 36.873444,94.901154 
	C53.244709,75.872589 73.375366,61.675186 97.132187,52.764275 
	C117.854897,44.991432 139.252625,41.629349 161.168167,43.148872 
	C192.462708,45.318695 220.731277,56.093624 245.291138,75.869820 
	C253.239822,82.270317 260.801117,82.240524 268.652130,75.941017 
	C289.019104,59.598946 312.131195,49.305378 337.941589,44.971134 
	C362.688873,40.815414 387.041962,42.663727 410.675049,50.618591 
	C421.451050,54.245773 431.574066,59.911835 441.787262,65.061668 
	C445.692108,67.030632 445.921112,71.121407 444.706360,75.614609 
	C440.414673,79.719849 436.456665,79.966164 431.679016,77.212761 
	C381.836670,48.488163 323.184875,52.773144 278.106140,88.275970 
	C264.466400,99.018280 249.569977,99.075272 236.002258,88.362335 
	C208.562210,66.695946 177.431427,56.481857 142.501755,58.852581 
	C99.828842,61.748844 65.596939,80.713905 40.925308,115.481796 
	C13.480758,154.157364 9.928221,196.758286 23.582018,241.311859 
	C34.219929,276.024292 53.767223,305.688568 77.138718,332.980408 
	C81.508759,338.083496 83.845879,342.703094 80.122620,348.909332 
	C74.527855,351.256195 70.213142,349.472900 66.484261,344.995941 
	C48.911289,323.897644 32.805935,301.835297 20.951145,276.910217 
	C12.492178,259.124969 5.993291,240.723099 2.905851,221.201599 
	C2.791519,220.478699 2.144544,219.840042 1.372896,219.081055 
	C1.000000,202.645767 1.000000,186.291550 1.000001,169.468658 
z"/>
<path fill="#FE0000" opacity="1.000000" stroke="none" 
	d="
M80.424072,349.067505 
	C83.845879,342.703094 81.508759,338.083496 77.138718,332.980408 
	C53.767223,305.688568 34.219929,276.024292 23.582018,241.311859 
	C9.928221,196.758286 13.480758,154.157364 40.925308,115.481796 
	C65.596939,80.713905 99.828842,61.748844 142.501755,58.852581 
	C177.431427,56.481857 208.562210,66.695946 236.002258,88.362335 
	C249.569977,99.075272 264.466400,99.018280 278.106140,88.275970 
	C323.184875,52.773144 381.836670,48.488163 431.679016,77.212761 
	C436.456665,79.966164 440.414673,79.719849 444.708557,75.977295 
	C449.676910,79.694916 454.297089,83.542145 459.148926,87.648788 
	C456.697266,93.652946 458.544006,97.849205 462.688843,102.540451 
	C496.543793,140.858444 505.097961,185.183777 492.494202,234.020111 
	C483.885162,267.377960 466.450409,296.238068 445.227753,322.943024 
	C419.779388,354.965240 389.893768,382.424133 357.533203,407.283783 
	C356.767334,407.872131 355.899628,408.327972 354.424683,409.258820 
	C354.153503,405.680450 354.338196,402.523071 353.610291,399.592316 
	C351.651917,391.707092 349.261993,383.929901 347.143890,376.082733 
	C346.690155,374.401703 346.024567,372.385986 346.539185,370.899078 
	C349.896576,361.198364 348.286865,352.551971 341.747986,344.725159 
	C341.224976,344.099182 340.867340,343.334991 340.867798,343.335724 
	C348.919922,336.261688 357.673828,330.155975 364.445068,322.333893 
	C387.471039,295.734436 389.837006,265.217255 379.755371,232.686081 
	C378.850342,229.765732 378.750916,226.146194 379.570282,223.212463 
	C385.830719,200.796616 390.107788,178.174164 389.051575,154.733780 
	C388.088348,133.357452 372.482117,121.844368 351.852112,127.662178 
	C332.011963,133.257248 314.235626,142.872467 298.193481,155.707733 
	C295.564087,157.811478 293.239441,158.207138 289.991364,157.466614 
	C268.058716,152.466125 246.058334,152.327621 224.133759,157.503326 
	C220.655075,158.324539 218.227661,157.637024 215.501541,155.465286 
	C199.430923,142.662720 181.624664,133.096115 161.774384,127.550049 
	C141.470764,121.877327 125.925575,133.464310 124.951805,154.615341 
	C123.864861,178.224960 128.148926,201.014587 134.565048,223.566299 
	C135.318924,226.216080 135.367599,229.537216 134.480957,232.112549 
	C120.857536,271.683441 130.104477,315.594757 171.497589,340.871887 
	C172.196198,341.298523 172.839127,341.816406 173.763992,342.473572 
	C172.437775,344.336395 171.167847,346.042969 169.978775,347.804108 
	C165.591507,354.302246 164.988922,361.289246 166.724777,368.840912 
	C167.332962,371.486755 166.903244,374.563965 166.245407,377.273743 
	C163.750916,387.548889 160.968765,397.754181 158.191345,408.379028 
	C157.636429,407.993683 156.009369,407.061951 154.611725,405.862885 
	C138.937836,392.415283 123.253761,378.978760 107.677269,365.418854 
	C102.633110,361.027679 100.509911,360.560486 94.451736,363.792053 
	C89.633713,358.988403 85.179619,354.107056 80.424072,349.067505 
z"/>
<path fill="#4677D3" opacity="1.000000" stroke="none" 
	d="
M215.284775,175.908005 
	C231.847839,169.262238 249.187561,167.797256 266.714844,169.108337 
	C296.618042,171.345154 323.045624,182.100006 344.119659,203.867279 
	C364.234680,224.643997 373.714386,249.534485 369.178345,278.571533 
	C365.039795,305.064392 348.564758,322.087128 324.125793,333.067505 
	C300.629028,332.987396 278.120605,331.470642 256.261353,324.995911 
	C228.035278,316.635345 205.568573,301.712982 197.142303,271.362549 
	C198.933289,268.490906 201.067932,265.978455 201.821457,263.103943 
	C202.587402,260.182068 201.934448,256.902008 202.005676,253.781143 
	C202.119980,248.771790 199.881287,245.673431 194.900711,244.268829 
	C195.807831,237.129395 196.383453,230.366333 197.652985,223.736145 
	C200.887283,206.844955 208.165390,191.394775 215.284775,175.908005 
M220.980103,274.228821 
	C222.753036,289.318848 240.412186,300.025055 257.348602,288.338470 
	C258.945496,289.283081 260.463745,290.324799 262.099670,291.126251 
	C275.985168,297.928864 292.750793,288.018829 293.413513,272.646667 
	C293.616943,267.928955 291.057098,264.539215 286.915009,264.041290 
	C282.908875,263.559784 279.757416,265.966736 278.691559,270.340485 
	C278.533997,270.987000 278.453613,271.652039 278.328827,272.306854 
	C277.604614,276.108002 275.320038,278.265533 271.442230,278.203522 
	C267.572571,278.141632 265.280212,275.960938 264.770844,272.100372 
	C264.158264,267.457825 262.156464,264.003418 256.982697,264.071472 
	C252.126358,264.135315 250.121292,267.310638 249.517609,271.840118 
	C248.990814,275.792938 246.682632,278.291382 242.504501,278.200073 
	C238.353806,278.109375 236.407806,275.618591 235.735977,271.591766 
	C234.843307,266.241394 231.843277,263.662384 227.556961,264.018494 
	C223.109970,264.387909 220.910919,267.491364 220.980103,274.228821 
M326.874695,264.821259 
	C326.885529,260.682648 327.070435,256.535156 326.860931,252.407745 
	C326.625122,247.761200 323.511169,244.855591 319.281067,244.897491 
	C315.005432,244.939850 312.140076,247.856598 311.951172,252.585922 
	C311.819153,255.892105 312.019897,259.211548 311.889191,262.517822 
	C311.711670,267.007751 313.167236,270.531616 317.833466,271.523682 
	C322.501740,272.516174 325.359924,270.027863 326.874695,264.821259 
z"/>
<path fill="#015DAE" opacity="1.000000" stroke="none" 
	d="
M196.879944,271.562897 
	C205.568573,301.712982 228.035278,316.635345 256.261353,324.995911 
	C278.120605,331.470642 300.629028,332.987396 323.769043,333.113220 
	C313.108307,339.538361 300.810028,342.429321 288.344543,344.431702 
	C258.484589,349.228180 228.921478,348.069244 200.207764,337.889709 
	C178.559448,330.214966 159.869888,318.182861 150.213898,296.342010 
	C138.355225,269.518921 142.458801,243.543488 157.688354,219.273544 
	C171.108749,197.886719 190.749847,184.108963 214.874664,175.920959 
	C208.165390,191.394775 200.887283,206.844955 197.652985,223.736145 
	C196.383453,230.366333 195.807831,237.129395 194.536255,244.347687 
	C189.230896,245.487885 186.990524,248.407532 186.990784,253.244080 
	C186.990952,256.371643 186.952637,259.499695 186.995560,262.626678 
	C187.088989,269.432831 189.917969,271.973145 196.879944,271.562897 
z"/>
<path fill="#4676D2" opacity="1.000000" stroke="none" 
	d="
M338.545166,400.976440 
	C338.668610,401.627655 338.826782,402.274445 338.910370,402.930756 
	C340.425903,414.829041 337.838013,423.813843 326.037933,430.529449 
	C311.023956,439.074188 297.040924,449.297424 279.721100,453.029968 
	C252.050018,458.993225 226.226257,454.476837 202.283127,439.467560 
	C194.823227,434.791168 187.713013,429.558136 180.270386,424.852478 
	C177.146576,422.877441 175.470047,420.397949 175.383041,416.819702 
	C175.262039,411.841644 175.245209,406.860992 175.658569,401.485138 
	C193.099899,407.105865 210.486420,411.256897 228.445770,412.862823 
	C233.541061,434.817108 255.646927,441.647919 270.997223,432.990112 
	C278.676514,428.658905 283.364319,422.075043 285.892883,413.189972 
	C304.333496,410.969727 321.661224,406.941376 338.545166,400.976440 
z"/>
<path fill="#FD6D7E" opacity="1.000000" stroke="none" 
	d="
M301.663879,377.686493 
	C295.334900,378.719482 289.436951,379.837555 283.489136,380.521179 
	C276.754578,381.295288 270.047882,382.256409 263.264587,379.908264 
	C260.252625,378.865662 256.405640,378.417328 253.449936,379.340118 
	C239.530334,383.685760 226.028488,380.051483 212.558594,377.588684 
	C204.094330,376.041077 195.852325,373.177551 187.598846,370.619629 
	C183.453995,369.335052 180.013626,366.087219 181.064941,361.805054 
	C182.099030,357.593079 185.213470,353.852417 187.696838,350.090973 
	C187.973083,349.672516 190.147461,350.307953 191.346436,350.726837 
	C235.244934,366.065674 279.114685,366.108002 322.970398,350.559418 
	C326.602753,349.271606 332.382202,354.727264 333.108826,360.109650 
	C333.766632,364.982147 331.331635,369.089630 326.051392,370.754883 
	C318.129059,373.253357 310.072449,375.326019 301.663879,377.686493 
z"/>
<path fill="#015CAD" opacity="1.000000" stroke="none" 
	d="
M338.564392,400.595032 
	C321.661224,406.941376 304.333496,410.969727 286.078766,412.888489 
	C285.308075,407.463684 284.982910,402.047363 284.649536,396.494202 
	C300.563324,392.785706 317.217712,388.904633 334.862946,384.792664 
	C335.983215,389.435791 337.283417,394.824707 338.564392,400.595032 
z"/>
<path fill="#025CAD" opacity="1.000000" stroke="none" 
	d="
M228.429321,412.418732 
	C210.486420,411.256897 193.099899,407.105865 175.785248,401.030823 
	C176.649246,395.375153 177.861343,389.777496 178.951813,384.741486 
	C196.425140,388.821686 212.968491,392.684692 229.455780,396.534637 
	C229.136642,401.259338 228.774765,406.617004 228.429321,412.418732 
z"/>
<path fill="#FCBAD4" opacity="1.000000" stroke="none" 
	d="
M139.795532,162.267731 
	C139.796432,160.150803 139.796432,158.494888 139.796432,155.772980 
	C152.182343,162.898331 162.600433,171.225723 172.030304,180.483490 
	C163.242294,189.686890 154.622696,198.713913 145.968216,207.777466 
	C142.279205,193.308105 139.688660,178.215805 139.795532,162.267731 
z"/>
<path fill="#FCBAD4" opacity="1.000000" stroke="none" 
	d="
M360.604187,164.608444 
	C364.987671,161.631393 369.091187,158.878738 373.298370,156.056519 
	C376.207733,165.564056 371.355072,198.612015 367.823578,207.584305 
	C359.465637,198.810989 350.915863,189.836304 341.736328,180.200607 
	C347.612671,175.342285 353.968414,170.087570 360.604187,164.608444 
z"/>
<path fill="#F3E467" opacity="1.000000" stroke="none" 
	d="
M252.371216,420.862488 
	C245.070969,416.977173 242.000473,411.344116 243.443359,405.049469 
	C244.849060,398.917053 249.933868,394.355103 256.015259,394.046722 
	C261.845154,393.751129 266.329773,396.263947 269.154053,401.347412 
	C271.917267,406.321045 271.514130,411.342468 268.169983,415.868164 
	C264.303986,421.100067 259.023560,422.715179 252.371216,420.862488 
z"/>
<path fill="#4674CE" opacity="1.000000" stroke="none" 
	d="
M196.776505,166.804764 
	C192.705048,168.650070 188.755920,172.008774 185.304031,171.558197 
	C182.072632,171.136383 179.518829,166.487030 176.403427,164.032486 
	C167.034912,156.651382 157.537857,149.433365 147.347702,141.578842 
	C149.860977,141.406403 152.249939,140.685089 154.346451,141.186523 
	C171.685501,145.333740 187.267807,153.213669 202.225403,164.108170 
	C200.168304,165.133667 198.642105,165.894516 196.776505,166.804764 
z"/>
<path fill="#025BAB" opacity="1.000000" stroke="none" 
	d="
M332.078369,169.211868 
	C329.800171,172.220947 327.665802,172.516083 324.629425,170.626907 
	C320.840088,168.269287 316.669586,166.524338 312.664642,164.513000 
	C320.598907,153.936295 357.770966,138.487244 365.580750,141.914490 
	C354.677155,150.781876 343.506226,159.866669 332.078369,169.211868 
z"/>
<path fill="#4E0708" opacity="1.000000" stroke="none" 
	d="
M220.952759,273.803040 
	C220.910919,267.491364 223.109970,264.387909 227.556961,264.018494 
	C231.843277,263.662384 234.843307,266.241394 235.735977,271.591766 
	C236.407806,275.618591 238.353806,278.109375 242.504501,278.200073 
	C246.682632,278.291382 248.990814,275.792938 249.517609,271.840118 
	C250.121292,267.310638 252.126358,264.135315 256.982697,264.071472 
	C262.156464,264.003418 264.158264,267.457825 264.770844,272.100372 
	C265.280212,275.960938 267.572571,278.141632 271.442230,278.203522 
	C275.320038,278.265533 277.604614,276.108002 278.328827,272.306854 
	C278.453613,271.652039 278.533997,270.987000 278.691559,270.340485 
	C279.757416,265.966736 282.908875,263.559784 286.915009,264.041290 
	C291.057098,264.539215 293.616943,267.928955 293.413513,272.646667 
	C292.750793,288.018829 275.985168,297.928864 262.099670,291.126251 
	C260.463745,290.324799 258.945496,289.283081 257.348602,288.338470 
	C240.412186,300.025055 222.753036,289.318848 220.952759,273.803040 
z"/>
<path fill="#4E080A" opacity="1.000000" stroke="none" 
	d="
M326.811340,265.240417 
	C325.359924,270.027863 322.501740,272.516174 317.833466,271.523682 
	C313.167236,270.531616 311.711670,267.007751 311.889191,262.517822 
	C312.019897,259.211548 311.819153,255.892105 311.951172,252.585922 
	C312.140076,247.856598 315.005432,244.939850 319.281067,244.897491 
	C323.511169,244.855591 326.625122,247.761200 326.860931,252.407745 
	C327.070435,256.535156 326.885529,260.682648 326.811340,265.240417 
z"/>
<path fill="#4D0708" opacity="1.000000" stroke="none" 
	d="
M197.142303,271.362549 
	C189.917969,271.973145 187.088989,269.432831 186.995560,262.626678 
	C186.952637,259.499695 186.990952,256.371643 186.990784,253.244080 
	C186.990524,248.407532 189.230896,245.487885 194.520782,244.784576 
	C199.881287,245.673431 202.119980,248.771790 202.005676,253.781143 
	C201.934448,256.902008 202.587402,260.182068 201.821457,263.103943 
	C201.067932,265.978455 198.933289,268.490906 197.142303,271.362549 
z"/>
</svg>